{"title":"What Women Want (2000) DVD Rip","uid":6469652,"size":734414894,"categoryP":"video","categoryS":"movies","magnet":"?xt=urn:btih:c7d6129f0c98471da9d42a591afc9c56e01e8ac8&amp;dn=What+Women+Want+%282000%29+DVD+Rip&amp;tr=udp%3A%2F%2Ftracker.openbittorrent.com%3A80&amp;tr=udp%3A%2F%2Fopen.demonii.com%3A1337&amp;tr=udp%3A%2F%2Ftracker.coppersurfer.tk%3A6969&amp;tr=udp%3A%2F%2Fexodus.desync.com%3A6969","seeders":2,"leechers":0,"uploader":"RetroidPrime91","files":2,"time":1308078822,"description":"[img]http://www.cinemablend.com/images/reviews/88/main.jpg[/img]\n\n\nAfter an accident, a chauvinistic executive gains the ability to hear what women \nare really thinking.\n\n\nFormat                           : AVI\nFormat/Info                      : Audio Video Interleave\nFile size                        : 700 MiB\nDuration                         : 2h 1mn\nOverall bit rate                 : 806 Kbps\nWriting application              : VirtualDubMod 1.5.4.1 (build 2178/release)\nWriting library                  : VirtualDubMod build 2178/release\n\nVideo\nID                               : 0\nFormat                           : MPEG-4 Visual\nFormat settings, BVOP            : Yes\nFormat settings, QPel            : No\nFormat settings, GMC             : No warppoints\nFormat settings, Matrix          : Default (H.263)\nMuxing mode                      : Packed bitstream\nCodec ID                         : DX50\nCodec ID/Hint                    : DivX 5\nDuration                         : 2h 1mn\nBit rate                         : 681 Kbps\nWidth                            : 512 pixels\nHeight                           : 288 pixels\nDisplay aspect ratio             : 16:9\nFrame rate                       : 25.000 fps\nColor space                      : YUV\nChroma subsampling               : 4:2:0\nBit depth                        : 8 bits\nScan type                        : Progressive\nCompression mode                 : Lossy\nBits/(Pixel*Frame)               : 0.185\nStream size                      : 591 MiB (84%)\nWriting library                  : DivX 6.6.1.4\n\nAudio\nID                               : 1\nFormat                           : MPEG Audio\nFormat version                   : Version 1\nFormat profile                   : Layer 3\nMode                             : Joint stereo\nMode extension                   : MS Stereo\nCodec ID                         : 55\nCodec ID/Hint                    : MP3\nDuration                         : 2h 1mn\nBit rate mode                    : Variable\nBit rate                         : 113 Kbps\nNominal bit rate                 : 128 Kbps\nChannel(s)                       : 2 channels\nSampling rate                    : 48.0 KHz\nCompression mode                 : Lossy\nStream size                      : 97.8 MiB (14%)\nAlignment                        : Aligned on interleaves\nInterleave, duration             : 24 ms (0.60 video frame)\nInterleave, preload duration     : 163 ms\nWriting library                  : LAME3.97 \nEncoding settings                : -m j -V 4 -q 2 -lowpass 17 --abr 128\nLanguage                         : English\n\n\nPlease seed &amp; thank you for downloading, comments are appreciated.","torrent":{"xt":"urn:btih:c7d6129f0c98471da9d42a591afc9c56e01e8ac8","amp;dn":"What+Women+Want+%282000%29+DVD+Rip","amp;tr":["udp%3A%2F%2Ftracker.openbittorrent.com%3A80","udp%3A%2F%2Fopen.demonii.com%3A1337","udp%3A%2F%2Ftracker.coppersurfer.tk%3A6969","udp%3A%2F%2Fexodus.desync.com%3A6969"],"infoHash":"c7d6129f0c98471da9d42a591afc9c56e01e8ac8","infoHashBuffer":{"type":"Buffer","data":[199,214,18,159,12,152,71,29,169,212,42,89,26,252,156,86,224,30,138,200]},"announce":[],"urlList":[]}}